<svg width="47" height="46" viewBox="0 0 47 46" fill="none" xmlns="http://www.w3.org/2000/svg">
<path d="M18.9111 14.8262L20.1973 19.4815C21.4098 23.8703 22.016 26.0648 23.7985 27.063C25.5807 28.061 27.8435 27.473 32.3685 26.297L37.1683 25.0498C41.6935 23.8738 43.956 23.2858 44.9853 21.5568C46.0143 19.828 45.408 17.6336 44.1955 13.2447L42.9095 8.5895C41.697 4.20058 41.0908 2.0061 39.3083 1.00798C37.5258 0.00985479 35.263 0.59788 30.738 1.77388L25.9383 3.02123C21.413 4.19723 19.1505 4.78523 18.1214 6.51406C17.0923 8.24286 17.6986 10.4373 18.9111 14.8262Z" fill="url(#paint0_linear_18_74)"/>
<path d="M0.693726 6.11735C0.970576 5.11953 2.00393 4.53505 3.00175 4.8119L7.261 5.99361C9.55323 6.62958 11.3673 8.39666 12.0001 10.6872L17.3777 30.1523L17.7734 31.5188C19.3562 32.1095 20.7158 33.2165 21.5785 34.6868L22.3535 34.4475L44.5288 28.6848C45.531 28.4243 46.5548 29.0255 46.8153 30.0278C47.0758 31.03 46.4743 32.0535 45.472 32.314L23.3788 38.0558L22.557 38.3095C22.5403 41.4868 20.348 44.3888 17.0309 45.2508C13.0547 46.284 8.96773 43.9955 7.9023 40.139C6.8369 36.2825 9.19653 32.3185 13.1727 31.2853C13.3698 31.234 13.5671 31.191 13.7643 31.1558L8.38548 11.6858C8.1148 10.7061 7.32243 9.9023 6.25845 9.6071L1.9992 8.4254C1.00135 8.14855 0.416876 7.1152 0.693726 6.11735Z" fill="url(#paint1_linear_18_74)"/>
<defs>
<linearGradient id="paint0_linear_18_74" x1="1.55832" y1="7.38758" x2="47.5858" y2="8.26507" gradientUnits="userSpaceOnUse">
<stop stop-color="#FF1CF7"/>
<stop offset="1" stop-color="#00F0FF"/>
</linearGradient>
<linearGradient id="paint1_linear_18_74" x1="1.55832" y1="7.38758" x2="47.5858" y2="8.26507" gradientUnits="userSpaceOnUse">
<stop stop-color="#FF1CF7"/>
<stop offset="1" stop-color="#00F0FF"/>
</linearGradient>
</defs>
</svg>
