<svg width="44" height="44" viewBox="0 0 44 44" fill="none" xmlns="http://www.w3.org/2000/svg">
<path d="M17.625 2.00008C17.625 1.22686 17.1505 0.53293 16.4298 0.25263C15.7092 -0.027695 14.8904 0.163105 14.3679 0.733105L0.617881 15.7331C0.115431 16.2812 -0.0156441 17.0745 0.283756 17.755C0.583181 18.4358 1.25648 18.875 2.00006 18.875H42C43.0355 18.875 43.875 18.0355 43.875 17C43.875 15.9646 43.0355 15.1251 42 15.1251H17.625V2.00008Z" fill="url(#paint0_linear_18_75)"/>
<path d="M26.375 42V28.875H2.00001C0.964481 28.875 0.125006 28.0355 0.125006 27C0.125006 25.9645 0.964481 25.125 2.00001 25.125H42C42.7435 25.125 43.4168 25.5645 43.7163 26.245C44.0158 26.9258 43.8845 27.7188 43.3823 28.267L29.6323 43.267C29.1098 43.837 28.291 44.0278 27.5703 43.7475C26.8498 43.4673 26.375 42.7733 26.375 42Z" fill="url(#paint1_linear_18_75)"/>
<defs>
<linearGradient id="paint0_linear_18_75" x1="1.00785" y1="6.82145" x2="44.5473" y2="7.62903" gradientUnits="userSpaceOnUse">
<stop stop-color="#FF1CF7"/>
<stop offset="1" stop-color="#00F0FF"/>
</linearGradient>
<linearGradient id="paint1_linear_18_75" x1="49.5" y1="28.5" x2="0.266055" y2="44.8538" gradientUnits="userSpaceOnUse">
<stop stop-color="#FF1CF7"/>
<stop offset="1" stop-color="#00F0FF"/>
</linearGradient>
</defs>
</svg>
