<svg width="45" height="45" viewBox="0 0 45 45" fill="none" xmlns="http://www.w3.org/2000/svg">
<path d="M19.2082 5.16671H10.4998C7.93294 5.16671 6.64947 5.16671 5.66905 5.66627C4.80663 6.10569 4.10547 6.80685 3.66606 7.66925C3.1665 8.6497 3.1665 9.93314 3.1665 12.5V34.5C3.1665 37.0669 3.1665 38.3505 3.66606 39.3309C4.10547 40.1932 4.80663 40.8945 5.66905 41.3338C6.64947 41.8334 7.93294 41.8334 10.4998 41.8334H32.4998C35.0667 41.8334 36.3503 41.8334 37.3307 41.3338C38.193 40.8945 38.8943 40.1932 39.3336 39.3309C39.8332 38.3505 39.8332 37.0669 39.8332 34.5V24.6459M29.5207 8.60421L36.0024 15.086M18.6644 19.4605L33.9 4.22488C35.6898 2.43497 38.592 2.43497 40.3818 4.22488C42.1718 6.01478 42.1718 8.91679 40.3818 10.7067L24.6564 26.432C22.911 28.1776 22.0384 29.0502 21.0443 29.7441C20.162 30.3604 19.2102 30.8705 18.209 31.2647C17.0808 31.7088 15.871 31.9529 13.4513 32.4412L12.3332 32.6667L12.4419 31.9054C12.8267 29.212 13.0191 27.8652 13.4568 26.6078C13.8451 25.492 14.3756 24.4311 15.0352 23.451C15.7785 22.3464 16.7405 21.3844 18.6644 19.4605Z" stroke="url(#paint0_linear_10_240)" stroke-width="5" stroke-linecap="round" stroke-linejoin="round"/>
<defs>
<linearGradient id="paint0_linear_10_240" x1="3.94458" y1="8.84433" x2="42.3171" y2="9.54889" gradientUnits="userSpaceOnUse">
<stop stop-color="#FF1CF7"/>
<stop offset="1" stop-color="#00F0FF"/>
</linearGradient>
</defs>
</svg>
