<svg width="2197" height="681" viewBox="0 0 2197 681" fill="none" xmlns="http://www.w3.org/2000/svg">
<g clip-path="url(#clip0_23_80)">
<path opacity="0.0144928" d="M2387.75 693.477L2598.4 496.941C2602.42 493.189 2603.03 487.827 2600.06 482.351L2439.08 185.55C2436.18 180.203 2430.16 175.298 2422.64 172.145L2011.1 -0.233104C2003.16 -3.5597 1994.42 -4.56775 1987.45 -2.96048L1636.21 78.0314C1629.24 79.6387 1624.83 83.6783 1624.29 88.9609L1596.27 362.696C1595.75 367.702 1598.77 373.3 1604.5 377.994L1922.66 638.552C1928.53 643.36 1936.63 646.712 1944.7 647.675L2367.67 698.106C2376.11 699.111 2383.54 697.396 2387.75 693.477Z" stroke="url(#paint0_linear_23_80)" stroke-width="4"/>
<path opacity="0.0289855" d="M2322.55 702.521L2552.13 513.176C2556.56 509.522 2557.67 504.009 2555.16 498.205L2426.42 201.464C2423.88 195.605 2417.92 190.102 2410.26 186.547L2020.25 5.38954C2012.75 1.90853 2004.44 0.67232 1997.64 2.0254L1639.64 73.1984C1632.83 74.5515 1628.25 78.3492 1627.18 83.5333L1571.4 353.319C1570.3 358.613 1572.98 364.768 1578.66 370.003L1866.38 635.138C1872.01 640.323 1879.96 644.034 1887.97 645.214L2303.21 706.365C2311.09 707.525 2318.19 706.114 2322.55 702.521Z" stroke="url(#paint1_linear_23_80)" stroke-width="4"/>
<path opacity="0.0434783" d="M2257.24 710.421L2504.83 528.785C2509.65 525.247 2511.3 519.608 2509.3 513.499L2412.34 217.73C2410.25 211.364 2404.45 205.246 2396.75 201.281L2028.87 12.0237C2021.84 8.40455 2013.96 6.96375 2007.31 8.08185L1643.7 69.2699C1637.06 70.388 1632.32 73.9525 1630.73 79.022L1547.91 344.122C1546.17 349.676 1548.42 356.392 1553.96 362.177L1811.2 630.973C1816.51 636.525 1824.24 640.586 1832.16 641.98L2238.6 713.558C2245.97 714.855 2252.76 713.713 2257.24 710.421Z" stroke="url(#paint2_linear_23_80)" stroke-width="4"/>
<path opacity="0.057971" d="M2191.97 717.186L2456.58 543.747C2461.77 540.342 2463.98 534.607 2462.55 528.225L2396.81 234.277C2395.28 227.427 2389.76 220.696 2382.08 216.323L2036.88 19.6458C2030.31 15.9031 2022.85 14.2782 2016.35 15.179L1648.31 66.2542C1641.81 67.155 1636.92 70.496 1634.84 75.4384L1525.77 335.156C1523.34 340.931 1525.06 348.19 1530.34 354.519L1757.19 626.11C1762.12 632.007 1769.57 636.401 1777.35 638.005L2173.96 719.685C2180.85 721.105 2187.36 720.202 2191.97 717.186Z" stroke="url(#paint3_linear_23_80)" stroke-width="4"/>
<path opacity="0.0724638" d="M2126.84 722.834L2407.45 558.049C2413 554.79 2415.79 548.997 2414.99 542.383L2379.81 251.024C2378.93 243.736 2373.82 236.422 2366.27 231.655L2044.18 28.2319C2038.08 24.3776 2031 22.5853 2024.65 23.2846L1653.36 64.1583C1647 64.8577 1641.95 67.9856 1639.4 72.7922L1504.91 326.477C1501.76 332.421 1502.84 340.18 1507.76 347.024L1704.44 620.603C1708.9 626.814 1716 631.519 1723.63 633.327L2109.38 724.755C2115.86 726.29 2122.13 725.598 2126.84 722.834Z" stroke="url(#paint4_linear_23_80)" stroke-width="4"/>
<path opacity="0.0869565" d="M2062 727.383L2357.52 571.676C2363.4 568.576 2366.78 562.765 2366.66 555.971L2361.33 267.887C2361.19 260.231 2356.62 252.393 2349.3 247.261L2050.68 37.7545C2045.04 33.7975 2038.32 31.8503 2032.09 32.3617L1658.76 62.9855C1652.52 63.4969 1647.3 66.4228 1644.3 71.0888L1485.3 318.134C1481.4 324.186 1481.73 332.372 1486.16 339.676L1652.99 614.513C1656.92 620.994 1663.6 625.98 1671.05 627.986L2045 728.778C2051.1 730.421 2057.19 729.922 2062 727.383Z" stroke="url(#paint5_linear_23_80)" stroke-width="4"/>
<path opacity="0.101449" d="M1997.57 730.86L2306.86 584.62C2313.05 581.69 2317.04 575.904 2317.61 568.992L2341.39 284.78C2342.05 276.852 2338.15 268.583 2331.18 263.128L2056.28 48.1856C2051.09 44.131 2044.72 42.037 2038.58 42.3713L1664.42 62.7381C1658.28 63.0724 1652.88 65.8072 1649.44 70.3316L1466.84 310.177C1462.2 316.265 1461.71 324.773 1465.54 332.457L1602.89 607.897C1606.23 614.596 1612.45 619.827 1619.69 622.025L1980.92 731.766C1986.69 733.519 1992.63 733.196 1997.57 730.86Z" stroke="url(#paint6_linear_23_80)" stroke-width="4"/>
<path opacity="0.115942" d="M1933.66 733.291L2255.54 596.869C2262.02 594.119 2266.6 588.405 2267.9 581.441L2320.04 301.622C2321.54 293.539 2318.41 284.961 2311.88 279.236L2060.9 59.4927C2056.16 55.3422 2050.09 53.1048 2044.01 53.2698L1670.25 63.4144C1664.17 63.5794 1658.59 66.1333 1654.71 70.5177L1449.46 302.644C1444.11 308.692 1442.73 317.392 1445.86 325.349L1554.19 600.813C1556.88 607.669 1562.59 613.103 1569.6 615.487L1917.24 733.736C1922.73 735.603 1928.58 735.445 1933.66 733.291Z" stroke="url(#paint7_linear_23_80)" stroke-width="4"/>
<path opacity="0.130435" d="M1870.39 734.707L2203.63 608.416C2210.39 605.853 2215.55 600.26 2217.57 593.315L2297.32 318.347C2299.67 310.24 2297.39 301.497 2291.38 295.569L2064.46 71.642C2060.16 67.3945 2054.35 65.0131 2048.31 65.0131H1676.16C1670.11 65.0131 1664.31 67.3945 1660.01 71.642L1433.08 295.569C1427.08 301.497 1424.8 310.24 1427.15 318.347L1506.9 593.315C1508.92 600.26 1514.08 605.853 1520.84 608.416L1854.08 734.707C1859.34 736.697 1865.13 736.697 1870.39 734.707Z" stroke="url(#paint8_linear_23_80)" stroke-width="4"/>
<path opacity="0.144928" d="M1807.85 735.142L2151.21 619.253C2158.22 616.885 2163.94 611.459 2166.66 604.604L2273.3 334.909C2276.47 326.912 2275.07 318.159 2269.67 312.099L2066.88 84.5972C2063 80.2498 2057.44 77.7198 2051.39 77.5556L1682.05 67.5309C1676 67.3668 1669.96 69.5816 1665.23 73.6954L1417.63 288.973C1411.04 294.707 1407.88 303.337 1409.41 311.461L1461.04 585.452C1462.36 592.416 1466.95 598.122 1473.45 600.857L1791.54 734.699C1796.59 736.826 1802.39 736.983 1807.85 735.142Z" stroke="url(#paint9_linear_23_80)" stroke-width="4"/>
<path opacity="0.15942" d="M1746.15 734.631L2098.34 629.371C2105.6 627.204 2111.84 621.99 2115.21 615.292L2248.06 351.282C2251.96 343.523 2251.44 334.909 2246.7 328.793L2068.07 98.3189C2064.62 93.8679 2059.27 91.1822 2053.19 90.8511L1687.83 70.9633C1681.75 70.6322 1675.44 72.6828 1670.28 76.6651L1403.03 282.868C1395.93 288.34 1391.97 296.71 1392.67 304.72L1416.63 577.265C1417.24 584.18 1421.25 589.953 1427.48 592.853L1729.72 733.737C1734.6 736.015 1740.46 736.333 1746.15 734.631Z" stroke="url(#paint10_linear_23_80)" stroke-width="4"/>
<path opacity="0.173913" d="M1685.39 733.212L2045.12 638.763C2052.58 636.803 2059.31 631.842 2063.29 625.361L2221.63 367.461C2226.18 360.047 2226.49 351.709 2222.45 345.609L2067.97 112.765C2064.95 108.207 2059.78 105.356 2053.64 104.852L1693.41 75.3032C1687.26 74.799 1680.65 76.6838 1675.06 80.5344L1389.21 277.26C1381.72 282.413 1377.04 290.394 1376.95 298.173L1373.66 568.792C1373.58 575.592 1377.01 581.388 1382.94 584.446L1668.71 731.844C1673.46 734.292 1679.41 734.781 1685.39 733.212Z" stroke="url(#paint11_linear_23_80)" stroke-width="4"/>
<path opacity="0.188406" d="M1625.65 730.922L1991.61 647.423C1999.26 645.676 2006.42 641.002 2010.94 634.79L2194.06 383.451C2199.15 376.47 2200.21 368.514 2196.87 362.499L2066.5 127.89C2063.91 123.225 2058.91 120.199 2052.68 119.512L1698.68 80.5426C1692.45 79.8563 1685.51 81.5694 1679.48 85.2852L1376.13 272.148C1368.35 276.939 1363.08 284.432 1362.24 291.881L1332.14 560.064C1331.4 566.692 1334.26 572.47 1339.88 575.678L1608.63 729.049C1613.25 731.688 1619.35 732.359 1625.65 730.922Z" stroke="url(#paint12_linear_23_80)" stroke-width="4"/>
<path opacity="0.202899" d="M1567.01 727.804L1937.89 655.347C1945.71 653.819 1953.24 649.459 1958.24 643.557L2165.37 399.264C2170.87 392.775 2172.6 385.282 2169.95 379.409L2063.59 143.647C2061.44 138.876 2056.61 135.664 2050.27 134.783L1703.56 86.6698C1697.22 85.7895 1689.93 87.3209 1683.46 90.8956L1363.74 267.529C1355.78 271.928 1350.04 278.866 1348.54 285.911L1292.07 551.111C1290.71 557.518 1293.02 563.242 1298.32 566.591L1549.56 725.383C1554.07 728.234 1560.35 729.105 1567.01 727.804Z" stroke="url(#paint13_linear_23_80)" stroke-width="4"/>
<path opacity="0.217391" d="M1509.55 723.9L1884.05 662.532C1892.01 661.228 1899.84 657.205 1905.26 651.643L2135.57 414.91C2141.37 408.947 2143.66 401.966 2141.68 396.285L2059.19 159.988C2057.49 155.115 2052.82 151.706 2046.35 150.617L1707.94 93.6711C1701.48 92.5825 1693.83 93.9184 1686.92 97.3427L1352.01 263.4C1343.96 267.393 1337.89 273.737 1335.81 280.328L1253.47 541.96C1251.53 548.108 1253.3 553.747 1258.26 557.226L1491.59 720.879C1495.99 723.964 1502.49 725.057 1509.55 723.9Z" stroke="url(#paint14_linear_23_80)" stroke-width="4"/>
<path opacity="0.231884" d="M1453.34 719.255L1830.17 668.981C1838.24 667.904 1846.31 664.233 1852.06 659.031L2104.66 430.393C2110.66 424.967 2113.4 418.522 2112.05 413.07L2053.24 176.861C2052.01 171.894 2047.49 168.278 2040.89 166.965L1711.74 101.528C1705.14 100.216 1697.11 101.338 1689.77 104.601L1340.9 259.761C1332.84 263.342 1326.56 269.084 1324 275.193L1216.32 532.642C1213.87 538.5 1215.13 544.028 1219.74 547.624L1434.82 715.574C1439.1 718.915 1445.84 720.256 1453.34 719.255Z" stroke="url(#paint15_linear_23_80)" stroke-width="4"/>
<path opacity="0.246377" d="M1398.45 713.916L1776.32 674.697C1784.47 673.851 1792.73 670.541 1798.74 665.709L2072.65 445.707C2078.74 440.814 2081.85 434.908 2081.07 429.713L2045.71 194.214C2044.95 189.164 2040.59 185.33 2033.85 183.776L1714.86 110.221C1708.12 108.667 1699.71 109.556 1691.95 112.644L1330.37 256.613C1322.4 259.789 1316 264.937 1313.06 270.556L1180.66 523.186C1177.75 528.734 1178.52 534.128 1182.76 537.83L1379.33 709.506C1383.47 713.125 1390.49 714.743 1398.45 713.916Z" stroke="url(#paint16_linear_23_80)" stroke-width="4"/>
<path opacity="0.26087" d="M1344.95 707.931L1722.59 679.688C1730.78 679.075 1739.16 676.127 1745.38 671.67L2039.52 460.841C2045.63 456.462 2049.02 451.083 2048.76 446.163L2036.53 211.994C2036.27 206.873 2032.08 202.813 2025.2 200.998L1717.22 119.725C1710.34 117.91 1701.54 118.544 1693.38 121.442L1320.4 253.959C1312.57 256.743 1306.16 261.323 1302.91 266.457L1146.47 513.624C1143.16 518.85 1143.48 524.094 1147.34 527.887L1325.19 702.717C1329.18 706.635 1336.49 708.564 1344.95 707.931Z" stroke="url(#paint17_linear_23_80)" stroke-width="4"/>
<path opacity="0.275362" d="M1292.88 701.352L1669.04 683.964C1677.25 683.585 1685.69 680.998 1692.06 676.911L2005.3 475.775C2011.36 471.883 2014.95 467.008 2015.16 462.374L2025.7 230.149C2025.93 224.972 2021.93 220.677 2014.92 218.581L1718.73 130.015C1711.72 127.92 1702.54 128.273 1694 130.967L1310.95 251.806C1303.31 254.218 1296.95 258.263 1293.47 262.928L1113.76 503.992C1110.11 508.89 1110 513.969 1113.47 517.84L1272.48 695.252C1276.28 699.489 1283.9 701.767 1292.88 701.352Z" stroke="url(#paint18_linear_23_80)" stroke-width="4"/>
<path opacity="0.289855" d="M1242.3 694.23L1615.77 687.537C1623.95 687.391 1632.4 685.158 1638.86 681.435L1969.99 490.485C1975.95 487.047 1979.67 482.647 1980.29 478.302L2013.17 248.624C2013.92 243.406 2010.11 238.868 2002.99 236.47L1719.31 141.062C1712.18 138.664 1702.63 138.711 1693.73 141.186L1301.97 250.161C1294.56 252.222 1288.31 255.772 1284.67 259.992L1082.54 494.326C1078.59 498.895 1078.09 503.801 1081.16 507.733L1221.26 687.154C1224.83 691.73 1232.77 694.401 1242.3 694.23Z" stroke="url(#paint19_linear_23_80)" stroke-width="4"/>
<path opacity="0.304348" d="M1193.25 686.618L1562.82 690.423C1570.95 690.507 1579.36 688.618 1585.86 685.248L1933.6 504.942C1939.42 501.922 1943.23 497.965 1944.21 493.908L1998.94 267.367C2000.2 262.125 1996.61 257.333 1989.38 254.612L1718.89 152.833C1711.66 150.112 1701.75 149.824 1692.52 152.068L1293.42 249.03C1286.28 250.767 1280.19 253.864 1276.44 257.665L1052.79 484.665C1048.61 488.908 1047.74 493.633 1050.41 497.613L1171.6 678.472C1174.91 683.404 1183.17 686.514 1193.25 686.618Z" stroke="url(#paint20_linear_23_80)" stroke-width="4"/>
<path opacity="0.318841" d="M1145.77 678.572L1510.28 692.638C1518.32 692.949 1526.64 691.392 1533.14 688.361L1896.16 519.116C1901.82 516.48 1905.66 512.93 1906.95 509.156L1982.98 286.324C1984.77 281.074 1981.42 276.021 1974.1 272.954L1717.4 165.297C1710.09 162.229 1699.85 161.58 1690.31 163.579L1285.26 248.424C1278.4 249.861 1272.5 252.546 1268.69 255.959L1024.52 475.049C1020.15 478.974 1018.94 483.512 1021.2 487.524L1123.55 669.256C1126.54 674.56 1135.13 678.162 1145.77 678.572Z" stroke="url(#paint21_linear_23_80)" stroke-width="4"/>
<path opacity="0.333333" d="M1099.88 670.147L1458.2 694.2C1466.12 694.733 1474.32 693.494 1480.79 690.785L1857.71 532.976C1863.18 530.688 1867.03 527.512 1868.57 524.012L1965.3 305.441C1967.62 300.201 1964.52 294.877 1957.15 291.44L1714.78 178.417C1707.4 174.979 1696.86 173.939 1687.04 175.681L1277.43 248.348C1270.87 249.511 1265.18 251.825 1261.36 254.879L997.718 465.519C993.193 469.134 991.671 473.483 993.521 477.51L1077.17 659.554C1079.78 665.244 1088.68 669.395 1099.88 670.147Z" stroke="url(#paint22_linear_23_80)" stroke-width="4"/>
<path opacity="0.347826" d="M1055.61 661.399L1406.65 695.132C1414.42 695.879 1422.45 694.942 1428.86 692.54L1818.28 546.491C1823.54 544.518 1827.36 541.684 1829.13 538.447L1945.89 324.667C1948.73 319.454 1945.91 313.85 1938.52 310.019L1710.95 192.158C1703.55 188.327 1692.73 186.867 1682.66 188.342L1269.89 248.81C1263.64 249.726 1258.16 251.706 1254.35 254.43L972.357 456.115C967.718 459.433 965.909 463.591 967.352 467.618L1032.48 649.42C1034.67 655.507 1043.86 660.269 1055.61 661.399Z" stroke="url(#paint23_linear_23_80)" stroke-width="4"/>
<path opacity="0.362319" d="M1012.98 652.384L1355.68 695.453C1363.28 696.408 1371.11 695.756 1377.43 693.642L1777.91 559.632C1782.95 557.942 1786.73 555.419 1788.68 552.432L1924.75 343.95C1928.13 338.779 1925.62 332.885 1918.23 328.636L1705.86 206.482C1698.47 202.233 1687.42 200.324 1677.13 201.521L1262.57 249.815C1256.63 250.507 1251.39 252.188 1247.62 254.613L948.418 446.88C943.7 449.912 941.629 453.878 942.668 457.89L989.55 638.907C991.231 645.399 1000.69 650.84 1012.98 652.384Z" stroke="url(#paint24_linear_23_80)" stroke-width="4"/>
<path opacity="0.376812" d="M971.989 643.159L1305.36 695.188C1312.75 696.341 1320.36 695.956 1326.56 694.114L1736.64 572.369C1741.47 570.934 1745.19 568.692 1747.28 565.943L1901.91 363.237C1905.81 358.125 1903.63 351.932 1896.3 347.24L1699.46 221.349C1692.12 216.656 1680.88 214.269 1670.41 215.182L1255.42 251.367C1249.79 251.858 1244.79 253.273 1241.07 255.424L925.878 437.852C921.11 440.612 918.8 444.387 919.442 448.37L948.394 628.069C949.506 634.971 959.184 641.161 971.989 643.159Z" stroke="url(#paint25_linear_23_80)" stroke-width="4"/>
<path opacity="0.391304" d="M932.631 633.779L1255.73 694.361C1262.88 695.703 1270.25 695.566 1276.32 693.979L1694.52 584.676C1699.14 583.469 1702.78 581.481 1705 578.956L1877.37 382.478C1881.79 377.441 1879.99 370.94 1872.75 365.781L1691.69 236.716C1684.46 231.557 1673.07 228.663 1662.46 229.283L1248.39 253.469C1243.07 253.78 1238.3 254.958 1234.65 256.861L904.701 429.073C899.911 431.574 897.384 435.16 897.636 439.099L909.042 616.964C909.511 624.276 919.349 631.289 932.631 633.779Z" stroke="url(#paint26_linear_23_80)" stroke-width="4"/>
<path opacity="0.405797" d="M894.896 624.298L1206.84 692.998C1213.74 694.517 1220.85 694.611 1226.77 693.262L1651.62 596.528C1656.03 595.524 1659.58 593.767 1661.89 591.451L1851.16 401.624C1856.09 396.676 1854.7 389.859 1847.62 384.211L1682.52 252.539C1675.44 246.891 1663.97 243.464 1653.24 243.786L1241.42 256.122C1236.4 256.273 1231.85 257.24 1228.29 258.918L884.857 420.581C880.065 422.837 877.341 426.236 877.215 430.119L871.516 605.653C871.265 613.368 881.186 621.279 894.896 624.298Z" stroke="url(#paint27_linear_23_80)" stroke-width="4"/>
<path opacity="0.42029" d="M858.756 614.767L1158.74 691.125C1165.36 692.811 1172.19 693.118 1177.97 691.989L1607.97 607.902C1612.18 607.08 1615.65 605.53 1618.03 603.408L1823.3 420.625C1828.74 415.783 1827.81 408.644 1820.95 402.487L1671.89 268.771C1665.02 262.615 1653.55 258.63 1642.73 258.648L1234.45 259.324C1229.72 259.332 1225.39 260.113 1221.91 261.588L866.302 412.412C861.527 414.437 858.625 417.653 858.133 421.468L835.824 594.196C834.777 602.301 844.679 611.183 858.756 614.767Z" stroke="url(#paint28_linear_23_80)" stroke-width="4"/>
<path opacity="0.434783" d="M824.177 605.232L1111.47 688.77C1117.8 690.611 1124.34 691.114 1129.96 690.189L1563.65 618.779C1567.66 618.118 1571.04 616.755 1573.48 614.814L1793.84 439.435C1799.77 434.712 1799.35 427.25 1792.78 420.57L1659.76 285.361C1653.19 278.681 1641.78 274.12 1630.91 273.83L1227.43 263.074C1222.97 262.955 1218.85 263.57 1215.46 264.862L848.994 404.603C844.25 406.412 841.187 409.45 840.342 413.185L801.971 582.661C800.052 591.136 809.81 601.055 824.177 605.232Z" stroke="url(#paint29_linear_23_80)" stroke-width="4"/>
<path opacity="0.449275" d="M791.111 595.736L1065.06 685.961C1071.09 687.946 1077.35 688.628 1082.8 687.893L1518.71 629.139C1522.53 628.623 1525.83 627.427 1528.31 625.652L1762.81 458.007C1769.22 453.419 1769.37 445.636 1763.17 438.424L1646.11 302.254C1639.91 295.042 1628.64 289.889 1617.76 289.289L1220.3 267.366C1216.09 267.133 1212.17 267.601 1208.87 268.729L832.888 397.187C828.185 398.794 824.974 401.659 823.79 405.307L769.946 571.117C767.083 579.932 776.546 590.94 791.111 595.736Z" stroke="url(#paint30_linear_23_80)" stroke-width="4"/>
<path opacity="0.463768" d="M759.495 586.314L1019.55 682.727C1025.26 684.845 1031.24 685.691 1036.53 685.131L1473.2 638.967C1476.86 638.58 1480.07 637.535 1482.59 635.911L1730.25 476.298C1737.14 471.86 1737.9 463.766 1732.16 456.024L1630.89 319.387C1625.15 311.645 1614.13 305.895 1603.27 304.983L1213.01 272.193C1209.04 271.859 1205.3 272.196 1202.08 273.176L817.931 390.196C813.273 391.614 809.927 394.313 808.417 397.868L739.723 559.638C735.852 568.753 744.842 580.881 759.495 586.314Z" stroke="url(#paint31_linear_23_80)" stroke-width="4"/>
<path opacity="0.478261" d="M729.26 576.99L974.97 679.096C980.366 681.338 986.061 682.336 991.203 681.938L1427.19 648.25C1430.7 647.98 1433.84 647.069 1436.39 645.583L1696.22 494.266C1703.56 489.991 1705 481.608 1699.82 473.349L1614.09 336.695C1608.91 328.435 1598.23 322.093 1587.43 320.869L1205.5 277.547C1201.75 277.122 1198.17 277.341 1195.03 278.189L804.072 383.659C799.461 384.903 795.985 387.443 794.164 390.9L711.263 548.304C706.332 557.668 714.643 570.916 729.26 576.99Z" stroke="url(#paint32_linear_23_80)" stroke-width="4"/>
<path opacity="0.492754" d="M700.33 567.781L931.348 675.1C936.425 677.458 941.852 678.596 946.853 678.349L1380.75 656.978C1384.12 656.812 1387.2 656.023 1389.78 654.662L1660.77 511.872C1668.55 507.774 1670.73 499.136 1666.21 490.389L1595.7 354.103C1591.17 345.356 1580.94 338.442 1570.25 336.906L1197.71 283.42C1194.16 282.91 1190.74 283.023 1187.66 283.752L791.256 377.604C786.688 378.686 783.086 381.076 780.966 384.434L684.506 537.197C678.476 546.746 685.888 561.073 700.33 567.781Z" stroke="url(#paint33_linear_23_80)" stroke-width="4"/>
<path opacity="0.507246" d="M672.623 558.691L888.704 670.765C893.466 673.235 898.64 674.505 903.514 674.4L1333.94 665.142C1337.19 665.072 1340.22 664.391 1342.84 663.142L1623.96 529.078C1632.15 525.171 1635.14 516.325 1631.37 507.141L1575.71 371.531C1571.94 362.346 1562.27 354.895 1551.71 353.052L1189.61 289.796C1186.24 289.207 1182.94 289.224 1179.91 289.845L779.428 372.056C774.893 372.987 771.163 375.237 768.753 378.496L659.37 526.399C652.225 536.06 658.508 551.371 672.623 558.691Z" stroke="url(#paint34_linear_23_80)" stroke-width="4"/>
<path opacity="0.521739" d="M646.064 549.717L847.059 666.125C851.511 668.703 856.45 670.1 861.217 670.129L1286.8 672.735C1289.96 672.755 1292.96 672.173 1295.63 671.024L1585.85 545.85C1594.43 542.147 1598.27 533.16 1595.35 523.607L1554.15 388.899C1551.23 379.346 1542.22 371.413 1531.85 369.265L1181.14 296.665C1177.92 295.999 1174.72 295.926 1171.73 296.45L768.527 367.04C764.011 367.83 760.147 369.949 757.452 373.114L635.75 515.992C627.497 525.68 632.434 541.824 646.064 549.717Z" stroke="url(#paint35_linear_23_80)" stroke-width="4"/>
<path opacity="0.536232" d="M620.588 540.848L806.431 661.209C810.58 663.896 815.304 665.418 819.985 665.576L1239.42 679.755C1242.51 679.859 1245.5 679.367 1248.22 678.307L1546.51 562.155C1555.45 558.671 1560.18 549.621 1558.18 539.791L1531.06 406.124C1529.06 396.294 1520.81 387.951 1510.66 385.506L1172.26 304.012C1169.17 303.268 1166.05 303.109 1163.07 303.544L758.495 362.576C753.979 363.235 749.969 365.233 746.99 368.308L613.526 506.05C604.202 515.673 607.604 532.439 620.588 540.848Z" stroke="url(#paint36_linear_23_80)" stroke-width="4"/>
<path opacity="0.550725" d="M596.154 532.072L766.833 656.046C770.687 658.845 775.217 660.493 779.838 660.779L1191.84 686.196C1194.88 686.383 1197.88 685.975 1200.68 684.995L1506 577.965C1515.28 574.711 1520.91 565.693 1519.89 555.694L1506.48 423.131C1505.47 413.132 1498.05 404.469 1488.16 401.735L1162.92 311.82C1159.94 310.996 1156.87 310.753 1153.88 311.104L749.268 358.686C744.73 359.22 740.558 361.105 737.291 364.097L592.568 496.632C582.236 506.094 583.97 523.221 596.154 532.072Z" stroke="url(#paint37_linear_23_80)" stroke-width="4"/>
<path opacity="0.565217" d="M572.744 523.383L728.279 650.668C731.843 653.584 736.199 655.363 740.785 655.776L1144.13 692.057C1147.15 692.329 1150.19 692.001 1153.08 691.091L1464.39 593.251C1473.97 590.239 1480.49 581.355 1480.49 571.309V439.857C1480.49 429.811 1473.97 420.928 1464.39 417.916L1153.08 320.075C1150.19 319.166 1147.15 318.838 1144.13 319.109L740.785 355.39C736.199 355.803 731.843 357.582 728.279 360.499L572.744 487.784C561.499 496.986 561.499 514.18 572.744 523.383Z" stroke="url(#paint38_linear_23_80)" stroke-width="4"/>
<path opacity="0.57971" d="M550.365 514.787L690.781 645.105C694.056 648.144 698.258 650.062 702.834 650.605L1096.34 697.337C1099.36 697.696 1102.47 697.446 1105.49 696.602L1421.76 607.987C1431.61 605.227 1438.99 596.581 1439.99 586.613L1453.19 456.256C1454.19 446.288 1448.6 437.291 1439.36 434.013L1142.71 328.761C1139.88 327.759 1136.84 327.342 1133.76 327.535L732.979 352.708C728.318 353 723.752 354.68 719.882 357.525L553.933 479.527C541.895 488.377 540.179 505.334 550.365 514.787Z" stroke="url(#paint39_linear_23_80)" stroke-width="4"/>
<path opacity="0.594203" d="M529.043 506.308L654.346 639.388C657.331 642.557 661.392 644.622 665.982 645.302L1048.54 702.033C1051.59 702.486 1054.8 702.315 1057.96 701.531L1378.17 622.148C1388.25 619.649 1396.42 611.341 1398.41 601.571L1424.64 472.299C1426.62 462.529 1421.97 453.523 1413.11 449.994L1131.76 337.864C1128.98 336.757 1125.92 336.245 1122.75 336.359L725.777 350.657C721.014 350.828 716.213 352.41 712.021 355.189L536.033 471.868C523.343 480.281 520.008 496.712 529.043 506.308Z" stroke="url(#paint40_linear_23_80)" stroke-width="4"/>
<path opacity="0.608696" d="M508.815 497.986L618.98 633.548C621.667 636.853 625.597 639.075 630.222 639.902L1000.79 706.147C1003.89 706.701 1007.22 706.613 1010.55 705.888L1333.71 635.711C1343.98 633.481 1352.85 625.596 1355.75 616.134L1394.94 487.974C1397.83 478.512 1394.1 469.593 1385.66 465.828L1120.19 347.367C1117.45 346.144 1114.34 345.528 1111.07 345.559L719.106 349.255C714.214 349.301 709.151 350.785 704.624 353.499L518.966 464.794C505.778 472.7 500.99 488.357 508.815 497.986Z" stroke="url(#paint41_linear_23_80)" stroke-width="4"/>
<path opacity="0.623188" d="M489.716 489.875L584.691 627.617C587.066 631.061 590.869 633.45 595.545 634.434L953.151 709.676C956.32 710.343 959.795 710.344 963.336 709.679L1288.44 648.655C1298.86 646.698 1308.34 639.308 1312.06 630.243L1364.17 503.282C1367.89 494.217 1365.03 485.468 1357.04 481.486L1107.98 357.254C1105.26 355.901 1102.09 355.17 1098.67 355.112L712.889 348.518C707.845 348.432 702.494 349.813 697.619 352.46L502.681 458.287C489.156 465.629 483.127 480.319 489.716 489.875Z" stroke="url(#paint42_linear_23_80)" stroke-width="4"/>
<path opacity="0.637681" d="M471.768 482.04L551.476 621.628C553.523 625.211 557.198 627.778 561.935 628.931L905.682 712.624C908.938 713.417 912.592 713.516 916.369 712.914L1242.44 660.96C1252.97 659.282 1262.95 652.437 1267.39 643.838L1332.38 518.232C1336.83 509.633 1334.8 501.121 1327.3 496.941L1095.07 367.511C1092.38 366.011 1089.12 365.151 1085.54 364.995L707.042 348.46C701.827 348.232 696.166 349.503 690.934 352.077L487.143 452.323C473.441 459.063 466.409 472.655 471.768 482.04Z" stroke="url(#paint43_linear_23_80)" stroke-width="4"/>
<path opacity="0.652174" d="M454.975 474.549L519.336 615.613C521.033 619.332 524.573 622.085 529.377 623.422L858.449 714.994C861.807 715.929 865.666 716.138 869.709 715.605L1195.79 672.61C1206.39 671.213 1216.75 664.946 1221.82 656.862L1299.63 532.831C1304.71 524.747 1303.44 516.524 1296.45 512.166L1081.44 378.118C1078.77 376.456 1075.41 375.45 1071.64 375.184L701.484 349.092C696.08 348.711 690.091 349.86 684.497 352.353L472.332 446.883C458.605 452.999 450.811 465.423 454.975 474.549Z" stroke="url(#paint44_linear_23_80)" stroke-width="4"/>
<path opacity="0.666667" d="M439.318 467.47L488.261 609.606C489.586 613.453 492.978 616.4 497.849 617.935L811.514 716.791C814.986 717.886 819.077 718.22 823.415 717.764L1148.58 683.593C1159.21 682.476 1169.83 676.803 1175.42 669.261L1265.97 547.088C1271.56 539.546 1271 531.649 1264.54 527.135L1067.05 389.057C1064.41 387.215 1060.94 386.045 1056.95 385.655L696.127 350.42C690.524 349.873 684.195 350.887 678.24 353.287L458.231 441.954C444.618 447.44 436.29 458.676 439.318 467.47Z" stroke="url(#paint45_linear_23_80)" stroke-width="4"/>
<path opacity="0.681159" d="M424.76 460.864L458.241 603.64C459.171 607.603 462.399 610.75 467.33 612.498L764.939 718.023C768.533 719.297 772.88 719.775 777.542 719.407L1100.88 693.895C1111.49 693.057 1122.28 687.98 1128.29 680.993L1231.44 561.006C1237.44 554.019 1237.51 546.47 1231.61 541.824L1051.86 400.307C1049.27 398.267 1045.68 396.913 1041.44 396.383L690.887 352.449C685.078 351.721 678.403 352.584 672.094 354.878L444.822 437.527C431.447 442.391 422.789 452.462 424.76 460.864Z" stroke="url(#paint46_linear_23_80)" stroke-width="4"/>
<path opacity="0.695652" d="M411.242 454.788L429.259 597.747C429.771 601.812 432.816 605.161 437.795 607.138L718.785 718.699C722.505 720.176 727.133 720.817 732.145 720.551L1052.78 703.51C1063.34 702.949 1074.19 698.457 1080.52 692.023L1196.06 574.582C1202.39 568.149 1203.03 560.963 1197.7 556.208L1035.85 411.848C1033.32 409.591 1029.6 408.03 1025.11 407.339L685.676 355.179C679.661 354.255 672.64 354.948 665.99 357.122L432.084 433.603C419.051 437.864 410.238 446.822 411.242 454.788Z" stroke="url(#paint47_linear_23_80)" stroke-width="4"/>
<path opacity="0.710145" d="M398.695 449.286L401.293 591.959C401.369 596.106 404.206 599.659 409.216 601.879L673.113 718.83C676.96 720.534 681.888 721.364 687.277 721.215L1004.36 712.433C1014.82 712.143 1025.65 708.217 1032.21 702.327L1159.87 587.811C1166.44 581.921 1167.59 575.104 1162.84 570.265L1018.99 423.656C1016.54 421.165 1012.69 419.369 1007.92 418.496L680.409 358.608C674.191 357.471 666.832 357.975 659.859 360.015L419.987 430.186C407.382 433.873 398.558 441.788 398.695 449.286Z" stroke="url(#paint48_linear_23_80)" stroke-width="4"/>
<path opacity="0.724638" d="M387.034 444.397L374.318 586.306C373.941 590.514 376.547 594.27 381.564 596.748L627.981 718.428C631.949 720.388 637.198 721.434 642.986 721.42L955.703 720.662C966.034 720.637 976.748 717.252 983.474 711.888L1122.92 600.681C1129.64 595.317 1131.26 588.871 1127.1 583.972L1001.24 435.708C998.914 432.963 994.933 430.906 989.862 429.825L675.001 362.73C668.59 361.363 660.906 361.658 653.635 363.548L408.492 427.284C396.383 430.433 387.663 437.387 387.034 444.397Z" stroke="url(#paint49_linear_23_80)" stroke-width="4"/>
<path opacity="0.73913" d="M376.172 440.152L348.302 580.816C347.46 585.063 349.81 589.018 354.807 591.767L583.445 717.509C587.525 719.753 593.111 721.048 599.319 721.189L906.893 728.197C917.05 728.428 927.588 725.555 934.406 720.694L1085.23 613.18C1092.05 608.32 1094.07 602.241 1090.51 597.31L982.593 447.977C980.415 444.963 976.31 442.612 970.929 441.296L669.37 367.534C662.779 365.922 654.79 365.987 647.25 367.714L397.555 424.909C385.991 427.558 377.462 433.638 376.172 440.152Z" stroke="url(#paint50_linear_23_80)" stroke-width="4"/>
<path opacity="0.753623" d="M366.012 436.574L323.213 575.516C321.9 579.778 323.967 583.928 328.912 586.959L539.562 716.087C543.739 718.647 549.675 720.227 556.319 720.546L858.012 735.042C867.955 735.52 878.257 733.125 885.108 728.743L1046.86 625.295C1053.71 620.914 1056.09 615.197 1053.12 610.259L963.016 460.438C961.032 457.139 956.814 454.46 951.109 452.876L663.435 373.011C656.682 371.136 648.414 370.952 640.638 372.503L387.123 423.072C376.139 425.263 367.867 430.554 366.012 436.574Z" stroke="url(#paint51_linear_23_80)" stroke-width="4"/>
<path opacity="0.768116" d="M356.459 433.68L299.015 570.431C297.228 574.683 298.986 579.021 303.842 582.345L496.384 714.179C500.637 717.091 506.933 718.996 514.025 719.517L809.139 741.204C818.83 741.916 828.845 739.966 835.677 736.036L1007.84 637.011C1014.67 633.081 1017.37 627.719 1014.99 622.802L942.494 473.065C940.751 469.466 936.435 466.422 930.399 464.536L657.117 379.144C650.224 376.99 641.71 376.538 633.733 377.903L377.138 421.785C366.754 423.561 358.784 428.146 356.459 433.68Z" stroke="url(#paint52_linear_23_80)" stroke-width="4"/>
<path opacity="0.782609" d="M347.415 431.48L275.667 565.583C273.411 569.8 274.833 574.318 279.559 577.945L453.966 711.803C458.265 715.103 464.926 717.379 472.474 718.128L760.352 746.691C769.755 747.624 779.44 746.083 786.21 742.576L968.216 648.314C974.986 644.808 977.961 639.792 976.16 634.922L921.009 485.828C919.563 481.919 915.168 478.469 908.798 476.243L650.338 385.916C643.334 383.468 634.612 382.732 626.469 383.9L367.536 421.059C357.761 422.462 350.123 426.417 347.415 431.48Z" stroke="url(#paint53_linear_23_80)" stroke-width="4"/>
<path opacity="0.797101" d="M338.78 429.982L253.129 560.995C250.411 565.153 251.472 569.839 256.024 573.776L412.359 708.979C416.667 712.705 423.689 715.402 431.695 716.405L711.727 751.513C720.809 752.652 730.129 751.485 736.799 748.375L928.048 659.191C934.717 656.081 937.932 651.402 936.695 646.605L898.549 498.699C897.458 494.471 893.014 490.572 886.31 487.964L643.024 393.307C635.941 390.551 627.053 389.515 618.784 390.48L358.251 420.902C349.082 421.973 341.794 425.371 338.78 429.982Z" stroke="url(#paint54_linear_23_80)" stroke-width="4"/>
<path opacity="0.811594" d="M330.46 429.187L231.358 556.684C228.19 560.76 228.866 565.602 233.195 569.852L371.616 705.728C375.885 709.919 383.257 713.091 391.715 714.378L663.338 755.685C672.068 757.013 680.996 756.186 687.534 753.443L887.382 669.629C893.92 666.887 897.338 662.536 896.646 657.837L875.104 511.648C874.433 507.096 869.974 502.701 862.947 499.668L635.104 401.294C627.977 398.218 618.972 396.869 610.616 397.626L349.212 421.322C340.64 422.099 333.71 425.005 330.46 429.187Z" stroke="url(#paint55_linear_23_80)" stroke-width="4"/>
<path opacity="0.826087" d="M322.359 429.092L210.309 552.668C206.708 556.639 206.974 561.624 211.029 566.187L331.787 702.073C335.959 706.769 343.659 710.476 352.557 712.072L615.254 759.22C623.606 760.719 632.121 760.197 638.503 757.796L846.27 679.617C852.651 677.216 856.24 673.183 856.069 668.606L850.667 524.643C850.484 519.767 846.056 514.828 838.724 511.322L626.506 409.851C619.379 406.443 610.308 404.772 601.903 405.319L340.349 422.323C332.355 422.842 325.783 425.315 322.359 429.092Z" stroke="url(#paint56_linear_23_80)" stroke-width="4"/>
<path opacity="0.84058" d="M314.383 429.693L189.937 548.962C185.924 552.808 185.757 557.918 189.485 562.793L292.922 698.041C296.928 703.279 304.921 707.583 314.235 709.518L567.544 762.137C575.494 763.788 583.586 763.539 589.79 761.453L804.767 689.149C810.972 687.062 814.702 683.335 815.022 678.901L825.238 537.651C825.613 532.457 821.272 526.925 813.662 522.899L617.167 418.949C610.084 415.202 601.003 413.203 592.586 413.538L331.589 423.906C324.151 424.202 317.93 426.294 314.383 429.693Z" stroke="url(#paint57_linear_23_80)" stroke-width="4"/>
<path opacity="0.855072" d="M306.443 430.981L170.195 545.578C165.793 549.28 165.172 554.497 168.518 559.675L255.073 693.662C258.83 699.478 267.063 704.443 276.761 706.741L520.271 764.452C527.803 766.238 535.465 766.23 541.478 764.432L762.928 698.216C768.941 696.418 772.784 692.985 773.565 688.714L798.818 550.639C799.823 545.14 795.637 538.965 787.791 534.372L607.021 428.556C600.035 424.467 591.001 422.137 582.609 422.26L322.86 426.072C315.949 426.173 310.068 427.932 306.443 430.981Z" stroke="url(#paint58_linear_23_80)" stroke-width="4"/>
<path opacity="0.869565" d="M298.45 432.942L151.039 542.527C146.274 546.069 145.18 551.371 148.086 556.839L218.287 688.971C221.699 695.393 230.102 701.082 240.141 703.767L473.496 766.187C480.6 768.087 487.833 768.292 493.646 766.758L720.807 706.813C726.62 705.279 730.551 702.128 731.758 698.035L771.416 563.571C773.122 557.786 769.174 550.921 761.149 545.717L596.01 438.638C589.176 434.206 580.25 431.548 571.917 431.462L314.091 428.815C307.675 428.749 302.118 430.216 298.45 432.942Z" stroke="url(#paint59_linear_23_80)" stroke-width="4"/>
<path opacity="0.884058" d="M290.319 435.564L132.421 539.817C127.322 543.184 125.738 548.548 128.148 554.288L182.61 684.012C185.569 691.059 194.048 697.53 204.373 700.622L427.277 767.363C433.947 769.36 440.76 769.75 446.369 768.457L678.459 714.94C684.068 713.647 688.067 710.763 689.664 706.86L743.05 576.41C745.523 570.367 741.911 562.774 733.779 556.92L584.08 449.156C577.456 444.388 568.699 441.408 560.456 441.118L305.209 432.13C299.255 431.921 294.002 433.132 290.319 435.564Z" stroke="url(#paint60_linear_23_80)" stroke-width="4"/>
<path opacity="0.898551" d="M281.966 438.827L114.297 537.455C108.891 540.635 106.803 546.035 108.663 552.021L148.081 678.837C150.467 686.514 158.905 693.815 169.449 697.326L381.667 768.002C387.905 770.08 394.312 770.631 399.719 769.556L635.937 722.595C641.344 721.52 645.392 718.89 647.344 715.184L713.74 589.118C717.039 582.854 713.877 574.505 705.732 567.973L571.18 460.07C564.829 454.977 556.299 451.687 548.175 451.198L296.146 436.008C290.617 435.675 285.644 436.663 281.966 438.827Z" stroke="url(#paint61_linear_23_80)" stroke-width="4"/>
<path opacity="0.913043" d="M273.313 442.711L96.6223 535.445C90.9395 538.427 88.3356 543.836 89.5976 550.036L114.731 673.507C116.419 681.801 124.674 689.962 135.359 693.901L336.716 768.128C342.532 770.272 348.552 770.964 353.764 770.087L593.294 729.779C598.506 728.902 602.592 726.51 604.864 723.005L683.522 601.657C687.696 595.217 685.112 586.102 677.065 578.878L557.268 471.337C551.253 465.937 543.008 462.354 535.025 461.671L286.834 440.436C281.691 439.996 276.975 440.79 273.313 442.711Z" stroke="url(#paint62_linear_23_80)" stroke-width="4"/>
<path opacity="0.927536" d="M264.287 447.194L79.3585 533.788C73.4251 536.566 70.2981 541.953 70.9187 548.328L82.5783 668.095C83.4423 676.97 91.3501 685.995 102.087 690.361L292.474 767.768C297.882 769.967 303.541 770.78 308.57 770.083L550.585 736.498C555.614 735.8 559.73 733.629 562.29 730.325L652.439 613.987C657.523 607.426 655.658 597.562 647.839 589.652L542.31 482.912C536.693 477.23 528.784 473.375 520.963 472.505L277.211 445.4C272.414 444.867 267.926 445.49 264.287 447.194Z" stroke="url(#paint63_linear_23_80)" stroke-width="4"/>
<path opacity="0.942029" d="M254.814 452.247L62.4643 532.485C56.3046 535.054 52.6512 540.389 52.5963 546.893L51.6185 662.684C51.5392 672.077 58.9209 681.938 69.6107 686.719L248.982 766.947C254.003 769.192 259.332 770.114 264.195 769.579L507.856 742.756C512.72 742.22 516.864 740.255 519.687 737.146L620.545 626.07C626.555 619.45 625.554 608.887 618.105 600.322L526.276 494.748C521.118 488.818 513.591 484.714 505.946 483.664L267.211 450.883C262.722 450.266 258.431 450.738 254.814 452.247Z" stroke="url(#paint64_linear_23_80)" stroke-width="4"/>
<path opacity="0.956522" d="M244.828 457.844L45.9043 531.534C39.5392 533.892 35.3598 539.142 34.606 545.727L21.8262 657.361C20.7019 667.182 27.3732 677.81 37.9121 682.987L206.284 765.693C210.941 767.981 215.973 769 220.692 768.613L465.159 748.56C469.878 748.173 474.055 746.398 477.119 743.477L587.903 637.872C594.837 631.262 594.84 620.086 587.911 610.926L509.149 506.801C504.503 500.659 497.396 496.335 489.935 495.111L256.779 456.864C252.555 456.171 248.432 456.509 244.828 457.844Z" stroke="url(#paint65_linear_23_80)" stroke-width="4"/>
<path opacity="0.971014" d="M234.27 463.954L29.6453 530.935C23.0916 533.08 18.3905 538.215 16.9266 544.827L-6.84976 652.215C-9.09299 662.347 -3.30723 673.629 6.9742 679.17L164.419 764.036C168.74 766.365 173.509 767.476 178.109 767.225L422.54 753.92C427.14 753.67 431.359 752.069 434.65 749.326L554.586 649.362C562.418 642.834 563.548 631.176 557.287 621.507L490.919 519.026C486.833 512.716 480.173 508.2 472.902 506.807L245.859 463.323C241.862 462.558 237.872 462.775 234.27 463.954Z" stroke="url(#paint66_linear_23_80)" stroke-width="4"/>
<path opacity="0.985507" d="M223.085 470.544L13.6557 530.686C6.92544 532.619 1.71127 537.608 -0.461295 544.193L-34.4854 647.326C-37.8845 657.629 -33.1334 669.411 -23.2139 675.278L123.423 762.006C127.435 764.378 131.978 765.578 136.487 765.456L380.046 758.845C384.555 758.722 388.831 757.283 392.341 754.706L520.671 660.516C529.353 654.144 531.7 642.169 526.24 632.107L471.587 531.381C468.097 524.949 461.905 520.27 454.821 518.712L234.401 470.237C230.593 469.4 226.703 469.505 223.085 470.544Z" stroke="url(#paint67_linear_23_80)" stroke-width="4"/>
<path d="M211.223 477.583L-2.09747 530.787C-8.99603 532.508 -14.7111 537.322 -17.5784 543.828L-61.1759 642.755C-65.725 653.078 -62.1166 665.176 -52.6562 671.32L83.3294 759.634C87.0586 762.056 91.4099 763.345 95.8565 763.345H337.721C342.167 763.345 346.519 762.056 350.248 759.634L486.234 671.32C495.694 665.176 499.302 653.078 494.753 642.755L451.156 543.828C448.288 537.322 442.573 532.508 435.675 530.787L222.355 477.583C218.7 476.671 214.877 476.671 211.223 477.583Z" stroke="url(#paint68_linear_23_80)" stroke-width="4"/>
</g>
<defs>
<linearGradient id="paint0_linear_23_80" x1="2382.53" y1="701.399" x2="2191.99" y2="-124.932" gradientUnits="userSpaceOnUse">
<stop stop-color="#FF1CF7"/>
<stop offset="1" stop-color="#00F0FF"/>
</linearGradient>
<linearGradient id="paint1_linear_23_80" x1="2316.98" y1="709.977" x2="2155.56" y2="-102.006" gradientUnits="userSpaceOnUse">
<stop stop-color="#FF1CF7"/>
<stop offset="1" stop-color="#00F0FF"/>
</linearGradient>
<linearGradient id="paint2_linear_23_80" x1="2251.35" y1="717.456" x2="2116.97" y2="-81.1175" gradientUnits="userSpaceOnUse">
<stop stop-color="#FF1CF7"/>
<stop offset="1" stop-color="#00F0FF"/>
</linearGradient>
<linearGradient id="paint3_linear_23_80" x1="2185.76" y1="723.844" x2="2076.66" y2="-62.298" gradientUnits="userSpaceOnUse">
<stop stop-color="#FF1CF7"/>
<stop offset="1" stop-color="#00F0FF"/>
</linearGradient>
<linearGradient id="paint4_linear_23_80" x1="2120.31" y1="729.153" x2="2035.03" y2="-45.5544" gradientUnits="userSpaceOnUse">
<stop stop-color="#FF1CF7"/>
<stop offset="1" stop-color="#00F0FF"/>
</linearGradient>
<linearGradient id="paint5_linear_23_80" x1="2055.13" y1="733.397" x2="1992.44" y2="-30.8775" gradientUnits="userSpaceOnUse">
<stop stop-color="#FF1CF7"/>
<stop offset="1" stop-color="#00F0FF"/>
</linearGradient>
<linearGradient id="paint6_linear_23_80" x1="1990.32" y1="736.595" x2="1949.23" y2="-18.2431" gradientUnits="userSpaceOnUse">
<stop stop-color="#FF1CF7"/>
<stop offset="1" stop-color="#00F0FF"/>
</linearGradient>
<linearGradient id="paint7_linear_23_80" x1="1925.98" y1="738.766" x2="1905.73" y2="-7.61783" gradientUnits="userSpaceOnUse">
<stop stop-color="#FF1CF7"/>
<stop offset="1" stop-color="#00F0FF"/>
</linearGradient>
<linearGradient id="paint8_linear_23_80" x1="1862.23" y1="739.935" x2="1862.23" y2="1.04182" gradientUnits="userSpaceOnUse">
<stop stop-color="#FF1CF7"/>
<stop offset="1" stop-color="#00F0FF"/>
</linearGradient>
<linearGradient id="paint9_linear_23_80" x1="1799.17" y1="740.128" x2="1819.04" y2="7.787" gradientUnits="userSpaceOnUse">
<stop stop-color="#FF1CF7"/>
<stop offset="1" stop-color="#00F0FF"/>
</linearGradient>
<linearGradient id="paint10_linear_23_80" x1="1736.88" y1="739.374" x2="1776.44" y2="12.6757" gradientUnits="userSpaceOnUse">
<stop stop-color="#FF1CF7"/>
<stop offset="1" stop-color="#00F0FF"/>
</linearGradient>
<linearGradient id="paint11_linear_23_80" x1="1675.47" y1="737.705" x2="1734.69" y2="15.7725" gradientUnits="userSpaceOnUse">
<stop stop-color="#FF1CF7"/>
<stop offset="1" stop-color="#00F0FF"/>
</linearGradient>
<linearGradient id="paint12_linear_23_80" x1="1615.02" y1="735.154" x2="1694.06" y2="17.1505" gradientUnits="userSpaceOnUse">
<stop stop-color="#FF1CF7"/>
<stop offset="1" stop-color="#00F0FF"/>
</linearGradient>
<linearGradient id="paint13_linear_23_80" x1="1555.61" y1="731.759" x2="1654.81" y2="16.8905" gradientUnits="userSpaceOnUse">
<stop stop-color="#FF1CF7"/>
<stop offset="1" stop-color="#00F0FF"/>
</linearGradient>
<linearGradient id="paint14_linear_23_80" x1="1497.33" y1="727.558" x2="1617.22" y2="15.0839" gradientUnits="userSpaceOnUse">
<stop stop-color="#FF1CF7"/>
<stop offset="1" stop-color="#00F0FF"/>
</linearGradient>
<linearGradient id="paint15_linear_23_80" x1="1440.25" y1="722.59" x2="1581.55" y2="11.8341" gradientUnits="userSpaceOnUse">
<stop stop-color="#FF1CF7"/>
<stop offset="1" stop-color="#00F0FF"/>
</linearGradient>
<linearGradient id="paint16_linear_23_80" x1="1384.43" y1="716.899" x2="1548.07" y2="7.26016" gradientUnits="userSpaceOnUse">
<stop stop-color="#FF1CF7"/>
<stop offset="1" stop-color="#00F0FF"/>
</linearGradient>
<linearGradient id="paint17_linear_23_80" x1="1329.95" y1="710.527" x2="1517.05" y2="1.50078" gradientUnits="userSpaceOnUse">
<stop stop-color="#FF1CF7"/>
<stop offset="1" stop-color="#00F0FF"/>
</linearGradient>
<linearGradient id="paint18_linear_23_80" x1="1276.86" y1="703.522" x2="1488.8" y2="-5.27937" gradientUnits="userSpaceOnUse">
<stop stop-color="#FF1CF7"/>
<stop offset="1" stop-color="#00F0FF"/>
</linearGradient>
<linearGradient id="paint19_linear_23_80" x1="1225.21" y1="695.928" x2="1463.61" y2="-12.8851" gradientUnits="userSpaceOnUse">
<stop stop-color="#FF1CF7"/>
<stop offset="1" stop-color="#00F0FF"/>
</linearGradient>
<linearGradient id="paint20_linear_23_80" x1="1175.06" y1="687.793" x2="1441.8" y2="-21.0786" gradientUnits="userSpaceOnUse">
<stop stop-color="#FF1CF7"/>
<stop offset="1" stop-color="#00F0FF"/>
</linearGradient>
<linearGradient id="paint21_linear_23_80" x1="1126.44" y1="679.168" x2="1423.68" y2="-29.5694" gradientUnits="userSpaceOnUse">
<stop stop-color="#FF1CF7"/>
<stop offset="1" stop-color="#00F0FF"/>
</linearGradient>
<linearGradient id="paint22_linear_23_80" x1="1079.4" y1="670.1" x2="1409.6" y2="-38.0024" gradientUnits="userSpaceOnUse">
<stop stop-color="#FF1CF7"/>
<stop offset="1" stop-color="#00F0FF"/>
</linearGradient>
<linearGradient id="paint23_linear_23_80" x1="1033.95" y1="660.64" x2="1399.89" y2="-45.9355" gradientUnits="userSpaceOnUse">
<stop stop-color="#FF1CF7"/>
<stop offset="1" stop-color="#00F0FF"/>
</linearGradient>
<linearGradient id="paint24_linear_23_80" x1="990.129" y1="650.839" x2="1394.87" y2="-52.825" gradientUnits="userSpaceOnUse">
<stop stop-color="#FF1CF7"/>
<stop offset="1" stop-color="#00F0FF"/>
</linearGradient>
<linearGradient id="paint25_linear_23_80" x1="947.954" y1="640.746" x2="1394.85" y2="-57.9988" gradientUnits="userSpaceOnUse">
<stop stop-color="#FF1CF7"/>
<stop offset="1" stop-color="#00F0FF"/>
</linearGradient>
<linearGradient id="paint26_linear_23_80" x1="907.437" y1="630.414" x2="1400.04" y2="-60.6329" gradientUnits="userSpaceOnUse">
<stop stop-color="#FF1CF7"/>
<stop offset="1" stop-color="#00F0FF"/>
</linearGradient>
<linearGradient id="paint27_linear_23_80" x1="868.586" y1="619.893" x2="1410.59" y2="-59.7289" gradientUnits="userSpaceOnUse">
<stop stop-color="#FF1CF7"/>
<stop offset="1" stop-color="#00F0FF"/>
</linearGradient>
<linearGradient id="paint28_linear_23_80" x1="831.402" y1="609.232" x2="1426.44" y2="-54.1001" gradientUnits="userSpaceOnUse">
<stop stop-color="#FF1CF7"/>
<stop offset="1" stop-color="#00F0FF"/>
</linearGradient>
<linearGradient id="paint29_linear_23_80" x1="795.882" y1="598.483" x2="1447.28" y2="-42.3721" gradientUnits="userSpaceOnUse">
<stop stop-color="#FF1CF7"/>
<stop offset="1" stop-color="#00F0FF"/>
</linearGradient>
<linearGradient id="paint30_linear_23_80" x1="762.017" y1="587.695" x2="1472.43" y2="-23.0221" gradientUnits="userSpaceOnUse">
<stop stop-color="#FF1CF7"/>
<stop offset="1" stop-color="#00F0FF"/>
</linearGradient>
<linearGradient id="paint31_linear_23_80" x1="729.791" y1="576.916" x2="1500.69" y2="5.53654" gradientUnits="userSpaceOnUse">
<stop stop-color="#FF1CF7"/>
<stop offset="1" stop-color="#00F0FF"/>
</linearGradient>
<linearGradient id="paint32_linear_23_80" x1="699.185" y1="566.194" x2="1530.28" y2="44.791" gradientUnits="userSpaceOnUse">
<stop stop-color="#FF1CF7"/>
<stop offset="1" stop-color="#00F0FF"/>
</linearGradient>
<linearGradient id="paint33_linear_23_80" x1="670.175" y1="555.576" x2="1558.69" y2="95.8838" gradientUnits="userSpaceOnUse">
<stop stop-color="#FF1CF7"/>
<stop offset="1" stop-color="#00F0FF"/>
</linearGradient>
<linearGradient id="paint34_linear_23_80" x1="642.73" y1="545.106" x2="1582.81" y2="159.285" gradientUnits="userSpaceOnUse">
<stop stop-color="#FF1CF7"/>
<stop offset="1" stop-color="#00F0FF"/>
</linearGradient>
<linearGradient id="paint35_linear_23_80" x1="616.815" y1="534.831" x2="1599.05" y2="234.448" gradientUnits="userSpaceOnUse">
<stop stop-color="#FF1CF7"/>
<stop offset="1" stop-color="#00F0FF"/>
</linearGradient>
<linearGradient id="paint36_linear_23_80" x1="592.391" y1="524.792" x2="1603.83" y2="319.53" gradientUnits="userSpaceOnUse">
<stop stop-color="#FF1CF7"/>
<stop offset="1" stop-color="#00F0FF"/>
</linearGradient>
<linearGradient id="paint37_linear_23_80" x1="569.414" y1="515.029" x2="1594.11" y2="411.338" gradientUnits="userSpaceOnUse">
<stop stop-color="#FF1CF7"/>
<stop offset="1" stop-color="#00F0FF"/>
</linearGradient>
<linearGradient id="paint38_linear_23_80" x1="547.836" y1="505.583" x2="1568.06" y2="505.583" gradientUnits="userSpaceOnUse">
<stop stop-color="#FF1CF7"/>
<stop offset="1" stop-color="#00F0FF"/>
</linearGradient>
<linearGradient id="paint39_linear_23_80" x1="527.607" y1="496.491" x2="1525.45" y2="597.464" gradientUnits="userSpaceOnUse">
<stop stop-color="#FF1CF7"/>
<stop offset="1" stop-color="#00F0FF"/>
</linearGradient>
<linearGradient id="paint40_linear_23_80" x1="508.67" y1="487.789" x2="1467.77" y2="682.429" gradientUnits="userSpaceOnUse">
<stop stop-color="#FF1CF7"/>
<stop offset="1" stop-color="#00F0FF"/>
</linearGradient>
<linearGradient id="paint41_linear_23_80" x1="490.965" y1="479.51" x2="1397.93" y2="756.875" gradientUnits="userSpaceOnUse">
<stop stop-color="#FF1CF7"/>
<stop offset="1" stop-color="#00F0FF"/>
</linearGradient>
<linearGradient id="paint42_linear_23_80" x1="474.432" y1="471.685" x2="1319.67" y2="818.583" gradientUnits="userSpaceOnUse">
<stop stop-color="#FF1CF7"/>
<stop offset="1" stop-color="#00F0FF"/>
</linearGradient>
<linearGradient id="paint43_linear_23_80" x1="459.005" y1="464.343" x2="1236.87" y2="866.789" gradientUnits="userSpaceOnUse">
<stop stop-color="#FF1CF7"/>
<stop offset="1" stop-color="#00F0FF"/>
</linearGradient>
<linearGradient id="paint44_linear_23_80" x1="444.616" y1="457.513" x2="1153.04" y2="901.956" gradientUnits="userSpaceOnUse">
<stop stop-color="#FF1CF7"/>
<stop offset="1" stop-color="#00F0FF"/>
</linearGradient>
<linearGradient id="paint45_linear_23_80" x1="431.196" y1="451.217" x2="1070.96" y2="925.4" gradientUnits="userSpaceOnUse">
<stop stop-color="#FF1CF7"/>
<stop offset="1" stop-color="#00F0FF"/>
</linearGradient>
<linearGradient id="paint46_linear_23_80" x1="418.671" y1="445.479" x2="992.628" y2="938.891" gradientUnits="userSpaceOnUse">
<stop stop-color="#FF1CF7"/>
<stop offset="1" stop-color="#00F0FF"/>
</linearGradient>
<linearGradient id="paint47_linear_23_80" x1="406.97" y1="440.318" x2="919.279" y2="944.336" gradientUnits="userSpaceOnUse">
<stop stop-color="#FF1CF7"/>
<stop offset="1" stop-color="#00F0FF"/>
</linearGradient>
<linearGradient id="paint48_linear_23_80" x1="396.015" y1="435.751" x2="851.535" y2="943.554" gradientUnits="userSpaceOnUse">
<stop stop-color="#FF1CF7"/>
<stop offset="1" stop-color="#00F0FF"/>
</linearGradient>
<linearGradient id="paint49_linear_23_80" x1="385.731" y1="431.794" x2="789.564" y2="938.163" gradientUnits="userSpaceOnUse">
<stop stop-color="#FF1CF7"/>
<stop offset="1" stop-color="#00F0FF"/>
</linearGradient>
<linearGradient id="paint50_linear_23_80" x1="376.039" y1="428.457" x2="733.219" y2="929.526" gradientUnits="userSpaceOnUse">
<stop stop-color="#FF1CF7"/>
<stop offset="1" stop-color="#00F0FF"/>
</linearGradient>
<linearGradient id="paint51_linear_23_80" x1="366.862" y1="425.753" x2="682.166" y2="918.752" gradientUnits="userSpaceOnUse">
<stop stop-color="#FF1CF7"/>
<stop offset="1" stop-color="#00F0FF"/>
</linearGradient>
<linearGradient id="paint52_linear_23_80" x1="358.122" y1="423.686" x2="635.958" y2="906.716" gradientUnits="userSpaceOnUse">
<stop stop-color="#FF1CF7"/>
<stop offset="1" stop-color="#00F0FF"/>
</linearGradient>
<linearGradient id="paint53_linear_23_80" x1="349.74" y1="422.263" x2="594.105" y2="894.096" gradientUnits="userSpaceOnUse">
<stop stop-color="#FF1CF7"/>
<stop offset="1" stop-color="#00F0FF"/>
</linearGradient>
<linearGradient id="paint54_linear_23_80" x1="341.637" y1="421.486" x2="556.108" y2="881.403" gradientUnits="userSpaceOnUse">
<stop stop-color="#FF1CF7"/>
<stop offset="1" stop-color="#00F0FF"/>
</linearGradient>
<linearGradient id="paint55_linear_23_80" x1="333.737" y1="421.353" x2="521.484" y2="869.017" gradientUnits="userSpaceOnUse">
<stop stop-color="#FF1CF7"/>
<stop offset="1" stop-color="#00F0FF"/>
</linearGradient>
<linearGradient id="paint56_linear_23_80" x1="325.962" y1="421.863" x2="489.777" y2="857.216" gradientUnits="userSpaceOnUse">
<stop stop-color="#FF1CF7"/>
<stop offset="1" stop-color="#00F0FF"/>
</linearGradient>
<linearGradient id="paint57_linear_23_80" x1="318.237" y1="423.012" x2="460.567" y2="846.195" gradientUnits="userSpaceOnUse">
<stop stop-color="#FF1CF7"/>
<stop offset="1" stop-color="#00F0FF"/>
</linearGradient>
<linearGradient id="paint58_linear_23_80" x1="310.487" y1="424.791" x2="433.471" y2="836.089" gradientUnits="userSpaceOnUse">
<stop stop-color="#FF1CF7"/>
<stop offset="1" stop-color="#00F0FF"/>
</linearGradient>
<linearGradient id="paint59_linear_23_80" x1="302.641" y1="427.19" x2="408.141" y2="826.983" gradientUnits="userSpaceOnUse">
<stop stop-color="#FF1CF7"/>
<stop offset="1" stop-color="#00F0FF"/>
</linearGradient>
<linearGradient id="paint60_linear_23_80" x1="294.627" y1="430.198" x2="384.264" y2="818.932" gradientUnits="userSpaceOnUse">
<stop stop-color="#FF1CF7"/>
<stop offset="1" stop-color="#00F0FF"/>
</linearGradient>
<linearGradient id="paint61_linear_23_80" x1="286.376" y1="433.802" x2="361.555" y2="811.956" gradientUnits="userSpaceOnUse">
<stop stop-color="#FF1CF7"/>
<stop offset="1" stop-color="#00F0FF"/>
</linearGradient>
<linearGradient id="paint62_linear_23_80" x1="277.823" y1="437.986" x2="339.762" y2="806.061" gradientUnits="userSpaceOnUse">
<stop stop-color="#FF1CF7"/>
<stop offset="1" stop-color="#00F0FF"/>
</linearGradient>
<linearGradient id="paint63_linear_23_80" x1="268.904" y1="442.731" x2="318.654" y2="801.234" gradientUnits="userSpaceOnUse">
<stop stop-color="#FF1CF7"/>
<stop offset="1" stop-color="#00F0FF"/>
</linearGradient>
<linearGradient id="paint64_linear_23_80" x1="259.557" y1="448.018" x2="298.024" y2="797.451" gradientUnits="userSpaceOnUse">
<stop stop-color="#FF1CF7"/>
<stop offset="1" stop-color="#00F0FF"/>
</linearGradient>
<linearGradient id="paint65_linear_23_80" x1="249.724" y1="453.825" x2="277.684" y2="794.679" gradientUnits="userSpaceOnUse">
<stop stop-color="#FF1CF7"/>
<stop offset="1" stop-color="#00F0FF"/>
</linearGradient>
<linearGradient id="paint66_linear_23_80" x1="239.353" y1="460.13" x2="257.465" y2="792.878" gradientUnits="userSpaceOnUse">
<stop stop-color="#FF1CF7"/>
<stop offset="1" stop-color="#00F0FF"/>
</linearGradient>
<linearGradient id="paint67_linear_23_80" x1="228.39" y1="466.908" x2="237.214" y2="792.003" gradientUnits="userSpaceOnUse">
<stop stop-color="#FF1CF7"/>
<stop offset="1" stop-color="#00F0FF"/>
</linearGradient>
<linearGradient id="paint68_linear_23_80" x1="216.789" y1="474.133" x2="216.789" y2="792.005" gradientUnits="userSpaceOnUse">
<stop stop-color="#FF1CF7"/>
<stop offset="1" stop-color="#00F0FF"/>
</linearGradient>
<clipPath id="clip0_23_80">
<rect width="2197" height="681" fill="white"/>
</clipPath>
</defs>
</svg>
